<mxfile host="app.diagrams.net" agent="Mozilla/5.0 (Windows NT 10.0; Win64; x64) AppleWebKit/537.36 (KHTML, like Gecko) Chrome/140.0.0.0 Safari/537.36" version="28.2.1">
  <diagram name="Page-1" id="lEZMV7n1mC19F-F8ya91">
    <mxGraphModel dx="2066" dy="1103" grid="1" gridSize="10" guides="1" tooltips="1" connect="1" arrows="1" fold="1" page="1" pageScale="1" pageWidth="1169" pageHeight="827" math="0" shadow="0">
      <root>
        <mxCell id="0" />
        <mxCell id="1" parent="0" />
        <mxCell id="cnWStqoxJwZE6whexyRf-4" value="" style="rounded=0;orthogonalLoop=1;jettySize=auto;html=1;" edge="1" parent="1" source="cnWStqoxJwZE6whexyRf-1" target="cnWStqoxJwZE6whexyRf-3">
          <mxGeometry relative="1" as="geometry" />
        </mxCell>
        <mxCell id="cnWStqoxJwZE6whexyRf-1" value="" style="dashed=0;outlineConnect=0;html=1;align=center;labelPosition=center;verticalLabelPosition=bottom;verticalAlign=top;shape=mxgraph.weblogos.youtube_2;fillColor=#FF2626;gradientColor=#B5171F" vertex="1" parent="1">
          <mxGeometry x="52" y="280" width="90" height="72.6" as="geometry" />
        </mxCell>
        <mxCell id="cnWStqoxJwZE6whexyRf-2" value="" style="sketch=0;points=[[0,0,0],[0.25,0,0],[0.5,0,0],[0.75,0,0],[1,0,0],[0,1,0],[0.25,1,0],[0.5,1,0],[0.75,1,0],[1,1,0],[0,0.25,0],[0,0.5,0],[0,0.75,0],[1,0.25,0],[1,0.5,0],[1,0.75,0]];outlineConnect=0;fontColor=#232F3E;fillColor=#01A88D;strokeColor=#ffffff;dashed=0;verticalLabelPosition=bottom;verticalAlign=top;align=center;html=1;fontSize=12;fontStyle=0;aspect=fixed;shape=mxgraph.aws4.resourceIcon;resIcon=mxgraph.aws4.machine_learning;" vertex="1" parent="1">
          <mxGeometry x="442" y="354.6" width="78" height="78" as="geometry" />
        </mxCell>
        <mxCell id="cnWStqoxJwZE6whexyRf-5" value="" style="rounded=0;orthogonalLoop=1;jettySize=auto;html=1;" edge="1" parent="1" source="cnWStqoxJwZE6whexyRf-3" target="cnWStqoxJwZE6whexyRf-2">
          <mxGeometry relative="1" as="geometry" />
        </mxCell>
        <mxCell id="cnWStqoxJwZE6whexyRf-3" value="" style="shape=hexagon;perimeter=hexagonPerimeter2;whiteSpace=wrap;html=1;fixedSize=1;" vertex="1" parent="1">
          <mxGeometry x="262" y="352.6" width="120" height="80" as="geometry" />
        </mxCell>
        <mxCell id="cnWStqoxJwZE6whexyRf-6" value="Direct Youtube Link" style="text;html=1;align=center;verticalAlign=middle;resizable=0;points=[];autosize=1;strokeColor=none;fillColor=none;" vertex="1" parent="1">
          <mxGeometry x="32" y="352.6" width="130" height="30" as="geometry" />
        </mxCell>
        <mxCell id="cnWStqoxJwZE6whexyRf-7" value="Preprocessing" style="text;html=1;align=center;verticalAlign=middle;resizable=0;points=[];autosize=1;strokeColor=none;fillColor=none;" vertex="1" parent="1">
          <mxGeometry x="272" y="377.6" width="100" height="30" as="geometry" />
        </mxCell>
        <mxCell id="cnWStqoxJwZE6whexyRf-8" value="Sentiment Analysis" style="text;html=1;align=center;verticalAlign=middle;resizable=0;points=[];autosize=1;strokeColor=none;fillColor=none;" vertex="1" parent="1">
          <mxGeometry x="421" y="436.29999999999995" width="120" height="30" as="geometry" />
        </mxCell>
        <mxCell id="cnWStqoxJwZE6whexyRf-9" value="" style="sketch=0;pointerEvents=1;shadow=0;dashed=0;html=1;strokeColor=none;fillColor=#505050;labelPosition=center;verticalLabelPosition=bottom;verticalAlign=top;outlineConnect=0;align=center;shape=mxgraph.office.users.csv_file;" vertex="1" parent="1">
          <mxGeometry x="52" y="432.6" width="90" height="70" as="geometry" />
        </mxCell>
        <mxCell id="cnWStqoxJwZE6whexyRf-10" value="Video and Comments Dataset" style="text;html=1;align=center;verticalAlign=middle;resizable=0;points=[];autosize=1;strokeColor=none;fillColor=none;" vertex="1" parent="1">
          <mxGeometry x="7" y="502.6" width="180" height="30" as="geometry" />
        </mxCell>
        <mxCell id="cnWStqoxJwZE6whexyRf-12" value="" style="endArrow=classic;html=1;rounded=0;entryX=0;entryY=0.75;entryDx=0;entryDy=0;" edge="1" parent="1" source="cnWStqoxJwZE6whexyRf-9" target="cnWStqoxJwZE6whexyRf-3">
          <mxGeometry width="50" height="50" relative="1" as="geometry">
            <mxPoint x="222" y="492.6" as="sourcePoint" />
            <mxPoint x="272" y="442.6" as="targetPoint" />
          </mxGeometry>
        </mxCell>
        <mxCell id="cnWStqoxJwZE6whexyRf-18" value="" style="edgeStyle=orthogonalEdgeStyle;rounded=0;orthogonalLoop=1;jettySize=auto;html=1;" edge="1" parent="1" source="cnWStqoxJwZE6whexyRf-13" target="cnWStqoxJwZE6whexyRf-16">
          <mxGeometry relative="1" as="geometry" />
        </mxCell>
        <mxCell id="cnWStqoxJwZE6whexyRf-13" value="" style="sketch=0;pointerEvents=1;shadow=0;dashed=0;html=1;strokeColor=none;fillColor=#005F4B;labelPosition=center;verticalLabelPosition=bottom;verticalAlign=top;align=center;outlineConnect=0;shape=mxgraph.veeam2.magnifying_glass;" vertex="1" parent="1">
          <mxGeometry x="583" y="354.6" width="78" height="78" as="geometry" />
        </mxCell>
        <mxCell id="cnWStqoxJwZE6whexyRf-14" value="" style="rounded=0;orthogonalLoop=1;jettySize=auto;html=1;exitX=1;exitY=0.5;exitDx=0;exitDy=0;exitPerimeter=0;" edge="1" parent="1" source="cnWStqoxJwZE6whexyRf-2" target="cnWStqoxJwZE6whexyRf-13">
          <mxGeometry relative="1" as="geometry">
            <mxPoint x="570" y="392.1" as="sourcePoint" />
            <mxPoint x="680" y="392.1" as="targetPoint" />
          </mxGeometry>
        </mxCell>
        <mxCell id="cnWStqoxJwZE6whexyRf-15" value="Quality Assessment" style="text;html=1;align=center;verticalAlign=middle;resizable=0;points=[];autosize=1;strokeColor=none;fillColor=none;" vertex="1" parent="1">
          <mxGeometry x="557" y="437.29999999999995" width="130" height="30" as="geometry" />
        </mxCell>
        <mxCell id="cnWStqoxJwZE6whexyRf-21" value="" style="rounded=0;orthogonalLoop=1;jettySize=auto;html=1;" edge="1" parent="1" source="cnWStqoxJwZE6whexyRf-16" target="cnWStqoxJwZE6whexyRf-20">
          <mxGeometry relative="1" as="geometry" />
        </mxCell>
        <mxCell id="cnWStqoxJwZE6whexyRf-16" value="" style="shape=image;html=1;verticalAlign=top;verticalLabelPosition=bottom;labelBackgroundColor=#ffffff;imageAspect=0;aspect=fixed;image=https://icons.diagrams.net/icon-cache1/Business_Success-2515/idea-read-knowledge-light_bulb-thinking-1090.svg" vertex="1" parent="1">
          <mxGeometry x="722" y="354.6" width="78" height="78" as="geometry" />
        </mxCell>
        <mxCell id="cnWStqoxJwZE6whexyRf-17" value="Relevance Analysis" style="text;html=1;align=center;verticalAlign=middle;resizable=0;points=[];autosize=1;strokeColor=none;fillColor=none;" vertex="1" parent="1">
          <mxGeometry x="696" y="436.29999999999995" width="130" height="30" as="geometry" />
        </mxCell>
        <mxCell id="cnWStqoxJwZE6whexyRf-25" value="" style="rounded=0;orthogonalLoop=1;jettySize=auto;html=1;dashed=1;" edge="1" parent="1" source="cnWStqoxJwZE6whexyRf-20" target="cnWStqoxJwZE6whexyRf-23">
          <mxGeometry relative="1" as="geometry" />
        </mxCell>
        <mxCell id="cnWStqoxJwZE6whexyRf-20" value="" style="image;aspect=fixed;html=1;points=[];align=center;fontSize=12;image=img/lib/azure2/other/Azure_Monitor_Dashboard.svg;" vertex="1" parent="1">
          <mxGeometry x="862" y="357.36" width="78" height="72.49" as="geometry" />
        </mxCell>
        <mxCell id="cnWStqoxJwZE6whexyRf-22" value="Interactive Dashboard" style="text;html=1;align=center;verticalAlign=middle;resizable=0;points=[];autosize=1;strokeColor=none;fillColor=none;" vertex="1" parent="1">
          <mxGeometry x="831" y="436.29999999999995" width="140" height="30" as="geometry" />
        </mxCell>
        <mxCell id="cnWStqoxJwZE6whexyRf-23" value="" style="sketch=0;pointerEvents=1;shadow=0;dashed=0;html=1;strokeColor=none;fillColor=#505050;labelPosition=center;verticalLabelPosition=bottom;verticalAlign=top;outlineConnect=0;align=center;shape=mxgraph.office.users.csv_file;" vertex="1" parent="1">
          <mxGeometry x="1072" y="358.6" width="90" height="70" as="geometry" />
        </mxCell>
        <mxCell id="cnWStqoxJwZE6whexyRf-27" value="Output CSV" style="text;html=1;align=center;verticalAlign=middle;resizable=0;points=[];autosize=1;strokeColor=none;fillColor=none;" vertex="1" parent="1">
          <mxGeometry x="1072" y="437.29999999999995" width="90" height="30" as="geometry" />
        </mxCell>
        <mxCell id="cnWStqoxJwZE6whexyRf-28" value="Optional" style="text;html=1;align=center;verticalAlign=middle;resizable=0;points=[];autosize=1;strokeColor=none;fillColor=none;" vertex="1" parent="1">
          <mxGeometry x="965" y="366.6" width="70" height="30" as="geometry" />
        </mxCell>
      </root>
    </mxGraphModel>
  </diagram>
</mxfile>
